<svg xmlns="http://www.w3.org/2000/svg" version="1.1" xmlns:xlink="http://www.w3.org/1999/xlink" xmlns:svgjs="http://svgjs.dev/svgjs" width="2000" height="1500" viewBox="0 0 2000 1500"><rect width="2000" height="1500" fill="#161618"></rect><g transform="matrix(0.75,0,0,0.75,249.09090909090912,278.98548387096776)"><svg viewBox="0 0 396 248" data-background-color="#161618" preserveAspectRatio="xMidYMid meet" height="1252" width="2000" xmlns="http://www.w3.org/2000/svg" xmlns:xlink="http://www.w3.org/1999/xlink"><g id="tight-bounds" transform="matrix(1,0,0,1,0.2400000000000091,0.4000000000000057)"><svg viewBox="0 0 395.52 247.2" height="247.2" width="395.52"><g><svg></svg></g><g><svg viewBox="0 0 395.52 247.2" height="247.2" width="395.52"><g transform="matrix(1,0,0,1,75.54432,97.06038754180412)"><svg viewBox="0 0 244.43135999999998 53.079224916391766" height="53.079224916391766" width="244.43135999999998"><g><svg viewBox="0 0 244.43135999999998 53.079224916391766" height="53.079224916391766" width="244.43135999999998"><g><svg viewBox="0 0 244.43135999999998 53.079224916391766" height="53.079224916391766" width="244.43135999999998"><g><svg viewBox="0 0 244.43135999999998 53.079224916391766" height="53.079224916391766" width="244.43135999999998"><g id="textblocktransform"><svg viewBox="0 0 244.43135999999998 53.079224916391766" height="53.079224916391766" width="244.43135999999998" id="textblock"><g><svg viewBox="0 0 244.43135999999998 53.079224916391766" height="53.079224916391766" width="244.43135999999998"><g transform="matrix(1,0,0,1,0,0)"><svg width="244.43135999999998" viewBox="2.12 -36.23 214.60999999999999 46.61" height="53.079224916391766" data-palette-color="#ffffff"><path d="M25.59-12.28L6.74-12.28Q6.74-7.74 8.62-5.27 10.5-2.81 14.11-2.81L14.11-2.81Q16.97-2.81 18.69-3.96 20.41-5.1 21.02-6.86L21.02-6.86 24.88-5.76Q22.51 0.49 14.11 0.49L14.11 0.49Q8.25 0.49 5.19-3 2.12-6.49 2.12-13.38L2.12-13.38Q2.12-19.92 5.19-23.41 8.25-26.9 13.94-26.9L13.94-26.9Q19.78-26.9 22.68-23.39 25.59-19.87 25.59-12.87L25.59-12.87 25.59-12.28ZM6.79-15.65L21.04-15.65Q20.68-19.82 18.92-21.74 17.16-23.66 13.87-23.66L13.87-23.66Q10.67-23.66 8.8-21.52 6.93-19.38 6.79-15.65L6.79-15.65ZM32.47 10.38L32.47 10.38Q30.71 10.38 29.44 10.11L29.44 10.11 29.44 6.81Q30.37 6.96 31.49 6.96L31.49 6.96Q33.54 6.96 35.29 5.43 37.03 3.91 38.4-0.12L38.4-0.12 27.93-26.42 32.61-26.42 38.18-11.82Q38.79-10.25 39.49-8.28 40.18-6.3 40.57-4.79L40.57-4.79Q41.18-6.52 41.81-8.23 42.43-9.94 43.02-11.65L43.02-11.65 48.07-26.42 52.71-26.42 42.55 0Q41.72 2.1 40.96 3.67 40.21 5.25 39.5 6.27L39.5 6.27Q38.08 8.35 36.36 9.36 34.64 10.38 32.47 10.38ZM78.39-12.28L59.54-12.28Q59.54-7.74 61.42-5.27 63.3-2.81 66.91-2.81L66.91-2.81Q69.77-2.81 71.49-3.96 73.21-5.1 73.82-6.86L73.82-6.86 77.68-5.76Q75.31 0.49 66.91 0.49L66.91 0.49Q61.05 0.49 57.99-3 54.93-6.49 54.93-13.38L54.93-13.38Q54.93-19.92 57.99-23.41 61.05-26.9 66.74-26.9L66.74-26.9Q72.58-26.9 75.48-23.39 78.39-19.87 78.39-12.87L78.39-12.87 78.39-12.28ZM59.59-15.65L73.85-15.65Q73.48-19.82 71.72-21.74 69.97-23.66 66.67-23.66L66.67-23.66Q63.47-23.66 61.6-21.52 59.74-19.38 59.59-15.65L59.59-15.65ZM106.32-13.33L106.32-13.33Q106.32-6.42 103.89-2.97 101.46 0.49 96.6 0.49L96.6 0.49Q93.6 0.49 91.61-0.6 89.62-1.68 88.37-4.1L88.37-4.1 88.32-4.1Q88.32-3.61 88.27-2.69 88.22-1.76 88.18-0.96 88.13-0.17 88.08 0L88.08 0 83.83 0Q83.9-0.66 83.94-2.01 83.98-3.37 83.98-5.44L83.98-5.44 83.98-36.23 88.37-36.23 88.37-25.9Q88.37-25.12 88.35-24.18 88.32-23.24 88.27-22.17L88.27-22.17 88.37-22.17Q89.59-24.71 91.61-25.81 93.62-26.9 96.6-26.9L96.6-26.9Q101.6-26.9 103.96-23.54 106.32-20.17 106.32-13.33ZM101.7-13.18L101.7-13.18Q101.7-18.73 100.24-21.12 98.77-23.51 95.48-23.51L95.48-23.51Q91.76-23.51 90.07-20.97 88.37-18.43 88.37-12.92L88.37-12.92Q88.37-7.71 90.03-5.24 91.69-2.76 95.43-2.76L95.43-2.76Q98.75-2.76 100.22-5.21 101.7-7.67 101.7-13.18ZM128.55-4.52L128.48-4.52Q126.97-1.78 124.98-0.65 122.99 0.49 120.03 0.49L120.03 0.49Q115.69 0.49 113.67-1.67 111.66-3.83 111.66-8.81L111.66-8.81 111.66-26.42 116.08-26.42 116.08-9.67Q116.08-5.71 117.31-4.31 118.54-2.91 121.52-2.91L121.52-2.91Q124.7-2.91 126.53-5.08 128.36-7.25 128.36-11.11L128.36-11.11 128.36-26.42 132.75-26.42 132.75-5.64Q132.75-3.34 132.79-1.93 132.83-0.51 132.9 0L132.9 0 128.75 0Q128.73-0.12 128.66-1.15 128.6-2.17 128.55-4.52L128.55-4.52ZM160.8 0L156.6 0Q156.55-0.27 156.49-1.01 156.43-1.76 156.4-2.66 156.36-3.56 156.36-4.25L156.36-4.25 156.26-4.25Q155.04-1.71 153.03-0.61 151.01 0.49 148.03 0.49L148.03 0.49Q143.03 0.49 140.67-2.88 138.32-6.25 138.32-13.09L138.32-13.09Q138.32-20 140.75-23.45 143.18-26.9 148.03-26.9L148.03-26.9Q151.04-26.9 153.04-25.81 155.04-24.71 156.26-22.31L156.26-22.31 156.31-22.31 156.26-25.27 156.26-36.23 160.66-36.23 160.66-5.44Q160.66-3.37 160.69-2.01 160.73-0.66 160.8 0L160.8 0ZM142.93-13.23L142.93-13.23Q142.93-7.69 144.4-5.3 145.86-2.91 149.16-2.91L149.16-2.91Q152.89-2.91 154.58-5.49 156.26-8.08 156.26-13.53L156.26-13.53Q156.26-18.77 154.58-21.22 152.89-23.66 149.21-23.66L149.21-23.66Q145.89-23.66 144.41-21.2 142.93-18.75 142.93-13.23ZM188.61 0L184.41 0Q184.36-0.27 184.3-1.01 184.24-1.76 184.2-2.66 184.16-3.56 184.16-4.25L184.16-4.25 184.07-4.25Q182.85-1.71 180.83-0.61 178.82 0.49 175.84 0.49L175.84 0.49Q170.83 0.49 168.48-2.88 166.12-6.25 166.12-13.09L166.12-13.09Q166.12-20 168.55-23.45 170.98-26.9 175.84-26.9L175.84-26.9Q178.84-26.9 180.84-25.81 182.85-24.71 184.07-22.31L184.07-22.31 184.12-22.31 184.07-25.27 184.07-36.23 188.46-36.23 188.46-5.44Q188.46-3.37 188.5-2.01 188.53-0.66 188.61 0L188.61 0ZM170.74-13.23L170.74-13.23Q170.74-7.69 172.2-5.3 173.67-2.91 176.96-2.91L176.96-2.91Q180.7-2.91 182.38-5.49 184.07-8.08 184.07-13.53L184.07-13.53Q184.07-18.77 182.38-21.22 180.7-23.66 177.01-23.66L177.01-23.66Q173.69-23.66 172.21-21.2 170.74-18.75 170.74-13.23ZM196.49 10.38L196.49 10.38Q194.73 10.38 193.46 10.11L193.46 10.11 193.46 6.81Q194.39 6.96 195.51 6.96L195.51 6.96Q197.57 6.96 199.31 5.43 201.06 3.91 202.42-0.12L202.42-0.12 191.95-26.42 196.64-26.42 202.2-11.82Q202.81-10.25 203.51-8.28 204.21-6.3 204.6-4.79L204.6-4.79Q205.21-6.52 205.83-8.23 206.45-9.94 207.04-11.65L207.04-11.65 212.09-26.42 216.73-26.42 206.57 0Q205.74 2.1 204.99 3.67 204.23 5.25 203.52 6.27L203.52 6.27Q202.11 8.35 200.39 9.36 198.66 10.38 196.49 10.38Z" opacity="1" transform="matrix(1,0,0,1,0,0)" fill="#ffffff" class="wordmark-text-0" data-fill-palette-color="primary" id="text-0"></path></svg></g></svg></g></svg></g></svg></g></svg></g></svg></g></svg></g><g><path d="M0 123.6c0-68.262 55.338-123.6 123.6-123.6 56.904 0 104.827 38.455 119.199 90.795l-2.484 0c-14.306-51.002-61.143-88.402-116.715-88.402-66.941 0-121.207 54.266-121.207 121.207 0 66.941 54.266 121.207 121.207 121.207 55.572 0 102.409-37.399 116.715-88.402l2.484 0c-14.372 52.34-62.295 90.795-119.199 90.795-68.262 0-123.6-55.338-123.6-123.6z" fill="#ffffff" stroke="transparent" data-fill-palette-color="tertiary"></path></g></svg></g><defs></defs></svg><rect width="395.52" height="247.2" fill="none" stroke="none" visibility="hidden"></rect></g></svg></g></svg>